<svg width="16" height="11" viewBox="0 0 16 11" fill="none" xmlns="http://www.w3.org/2000/svg">
<path fill-rule="evenodd" clip-rule="evenodd" d="M12.7952 1.06652C13.0797 0.757323 13.4609 0.586231 13.8565 0.590099C14.2521 0.593966 14.6305 0.772483 14.9103 1.0872C15.19 1.40192 15.3487 1.82765 15.3521 2.27271C15.3556 2.71778 15.2035 3.14655 14.9287 3.46669L8.89336 10.2564C8.61041 10.5746 8.2267 10.7534 7.82662 10.7534C7.42653 10.7534 7.04282 10.5746 6.75988 10.2564L0.724571 3.46669C0.449726 3.14655 0.297645 2.71778 0.301082 2.27271C0.30452 1.82765 0.463202 1.40192 0.74295 1.0872C1.0227 0.772483 1.40113 0.593966 1.79674 0.590099C2.19235 0.586231 2.57348 0.757323 2.85805 1.06652L7.82662 6.65616L12.7952 1.06652Z" fill="#007AFF"/>
</svg>
